<svg width="406" height="102" viewBox="0 0 406 102" fill="none" xmlns="http://www.w3.org/2000/svg">
<path d="M134.638 66.8252C136.747 66.8252 138.622 67.2036 140.263 67.96C141.903 68.7057 143.203 69.7286 144.162 71.0283C145.131 72.3279 145.643 73.8031 145.696 75.4541H141.86C141.669 73.835 140.891 72.5784 139.527 71.6836C138.164 70.7887 136.491 70.3408 134.51 70.3408C133.061 70.3408 131.793 70.5752 130.706 71.0439C129.63 71.5127 128.789 72.1573 128.182 72.9775C127.585 73.7979 127.287 74.7304 127.287 75.7744C127.287 76.6478 127.495 77.3989 127.91 78.0273C128.336 78.6452 128.88 79.1617 129.54 79.5771C130.2 79.9819 130.893 80.3177 131.617 80.584C132.342 80.8397 133.008 81.0472 133.615 81.207L136.938 82.1025C137.791 82.3263 138.739 82.6351 139.783 83.0293C140.838 83.4235 141.845 83.9608 142.804 84.6426C143.773 85.3137 144.572 86.1769 145.2 87.2314C145.829 88.2861 146.144 89.5811 146.144 91.1152C146.144 92.8836 145.68 94.4817 144.753 95.9092C143.837 97.3367 142.494 98.4709 140.726 99.3125C138.968 100.154 136.832 100.575 134.318 100.575C131.975 100.575 129.945 100.197 128.229 99.4404C126.525 98.684 125.182 97.6293 124.202 96.2764C123.233 94.9235 122.684 93.3521 122.557 91.5625H126.647C126.754 92.7982 127.169 93.8212 127.894 94.6309C128.629 95.4299 129.556 96.0257 130.675 96.4199C131.804 96.8034 133.019 96.9961 134.318 96.9961C135.831 96.9961 137.189 96.7507 138.393 96.2607C139.596 95.7601 140.55 95.0676 141.253 94.1836C141.956 93.2887 142.308 92.244 142.308 91.0508C142.308 89.9644 142.005 89.0802 141.397 88.3984C140.79 87.7166 139.991 87.1625 139 86.7363C138.009 86.3102 136.939 85.9377 135.788 85.6182L131.761 84.4668C129.204 83.7317 127.18 82.6829 125.688 81.3193C124.197 79.9557 123.451 78.171 123.451 75.9658C123.451 74.1335 123.947 72.5355 124.938 71.1719C125.939 69.7976 127.282 68.732 128.965 67.9756C130.659 67.2086 132.55 66.8252 134.638 66.8252ZM165.827 66.8252C168.618 66.8253 171.1 67.5075 173.273 68.8711C175.447 70.2347 177.157 72.1733 178.403 74.6875C179.65 77.2017 180.272 80.1851 180.272 83.6367C180.272 87.0881 179.65 90.0709 178.403 92.585C177.157 95.0992 175.447 97.0387 173.273 98.4023C171.1 99.7658 168.618 100.447 165.827 100.447C163.036 100.447 160.553 99.766 158.38 98.4023C156.207 97.0387 154.496 95.0992 153.25 92.585C152.004 90.0709 151.381 87.0881 151.381 83.6367C151.381 80.1851 152.004 77.2017 153.25 74.6875C154.496 72.1734 156.207 70.2347 158.38 68.8711C160.553 67.5075 163.036 66.8252 165.827 66.8252ZM190.899 96.4844H206.112V100H186.937V67.2725H190.899V96.4844ZM216.212 100H212.249V67.2725H216.212V100ZM234.705 67.2725C237.88 67.2725 240.596 67.928 242.854 69.2383C245.113 70.538 246.845 72.408 248.049 74.8477C249.252 77.2765 249.854 80.1848 249.854 83.5723C249.854 86.9812 249.247 89.9161 248.032 92.377C246.818 94.8271 245.05 96.7132 242.728 98.0342C240.405 99.3445 237.582 100 234.258 100H224.158V67.2725H234.705ZM280.276 100H276.121L272.831 90.7314H259.597L256.307 100H252.151L264.168 67.2725H268.26L280.276 100ZM289.337 100H285.374V67.2725H289.337V100ZM308.342 67.2725C310.898 67.2725 312.997 67.7095 314.638 68.583C316.278 69.4459 317.493 70.6337 318.281 72.1465C319.07 73.6593 319.464 75.3803 319.464 77.3086C319.464 79.2366 319.069 80.9462 318.281 82.4375C317.493 83.929 316.283 85.1009 314.653 85.9531C314.247 86.163 313.812 86.3464 313.35 86.5039L320.742 100H316.14L309.238 87.1992C308.966 87.2097 308.689 87.2158 308.405 87.2158H301.246V100H297.283V67.2725H308.342ZM345.818 70.7881H330.03V81.8467H344.796V85.3623H330.03V96.4844H346.074V100H326.067V67.2725H345.818V70.7881ZM165.827 70.5322C163.846 70.5322 162.05 71.0337 160.441 72.0352C158.844 73.0365 157.57 74.5115 156.622 76.4609C155.685 78.4105 155.216 80.8029 155.216 83.6367C155.216 86.4703 155.685 88.8621 156.622 90.8115C157.57 92.7611 158.843 94.2369 160.441 95.2383C162.05 96.2396 163.846 96.7402 165.827 96.7402C167.809 96.7402 169.598 96.2396 171.196 95.2383C172.805 94.2369 174.078 92.7611 175.016 90.8115C175.964 88.8621 176.437 86.4703 176.438 83.6367C176.438 80.8029 175.964 78.4105 175.016 76.4609C174.078 74.5116 172.805 73.0366 171.196 72.0352C169.598 71.0338 167.809 70.5323 165.827 70.5322ZM228.121 96.4844H234.002C236.708 96.4844 238.95 95.962 240.729 94.918C242.509 93.8739 243.835 92.3882 244.709 90.46C245.583 88.5317 246.019 86.2356 246.019 83.5723C246.019 80.9303 245.587 78.6559 244.725 76.749C243.862 74.8314 242.573 73.3606 240.857 72.3379C239.142 71.3046 237.006 70.7881 234.449 70.7881H228.121V96.4844ZM260.845 87.2158H271.583L266.342 72.4502H266.086L260.845 87.2158ZM301.246 83.6367H308.277C310.024 83.6367 311.431 83.3805 312.496 82.8691C313.572 82.3578 314.35 81.6336 314.829 80.6963C315.319 79.7482 315.564 78.6188 315.564 77.3086C315.564 75.9982 315.319 74.8522 314.829 73.8721C314.339 72.8922 313.556 72.1361 312.48 71.6035C311.405 71.0602 309.982 70.7881 308.214 70.7881H301.246V83.6367ZM235.536 26.8252C237.645 26.8252 239.521 27.2036 241.161 27.96C242.802 28.7057 244.102 29.7286 245.061 31.0283C246.03 32.3278 246.541 33.8031 246.595 35.4541H242.759C242.567 33.835 241.789 32.5784 240.426 31.6836C239.062 30.7887 237.39 30.3408 235.408 30.3408C233.959 30.3408 232.691 30.5752 231.604 31.0439C230.529 31.5127 229.687 32.1573 229.08 32.9775C228.483 33.7979 228.186 34.7304 228.186 35.7744C228.186 36.6478 228.393 37.3989 228.809 38.0273C229.235 38.6452 229.778 39.1617 230.438 39.5771C231.099 39.9819 231.791 40.3177 232.516 40.584C233.24 40.8397 233.906 41.0472 234.514 41.207L237.837 42.1025C238.689 42.3263 239.638 42.6351 240.682 43.0293C241.736 43.4235 242.743 43.9608 243.702 44.6426C244.671 45.3137 245.47 46.1769 246.099 47.2314C246.727 48.2861 247.042 49.5811 247.042 51.1152C247.042 52.8836 246.578 54.4817 245.651 55.9092C244.735 57.3367 243.392 58.4709 241.624 59.3125C239.866 60.154 237.731 60.5752 235.217 60.5752C232.873 60.5752 230.843 60.1968 229.128 59.4404C227.423 58.684 226.081 57.6293 225.101 56.2764C224.131 54.9235 223.583 53.3521 223.455 51.5625H227.546C227.652 52.7982 228.068 53.8212 228.792 54.6309C229.527 55.4299 230.455 56.0257 231.573 56.4199C232.702 56.8034 233.917 56.9961 235.217 56.9961C236.729 56.9961 238.087 56.7507 239.291 56.2607C240.495 55.7601 241.448 55.0676 242.151 54.1836C242.854 53.2887 243.206 52.244 243.206 51.0508C243.206 49.9644 242.903 49.0802 242.296 48.3984C241.689 47.7166 240.889 47.1625 239.898 46.7363C238.908 46.3102 237.837 45.9377 236.687 45.6182L232.659 44.4668C230.103 43.7317 228.078 42.6829 226.587 41.3193C225.095 39.9557 224.35 38.171 224.35 35.9658C224.35 34.1335 224.845 32.5355 225.836 31.1719C226.837 29.7976 228.18 28.732 229.863 27.9756C231.557 27.2086 233.448 26.8252 235.536 26.8252ZM315.177 48.6221C315.177 50.22 315.528 51.6423 316.231 52.8887C316.935 54.1245 317.937 55.0997 319.236 55.8135C320.546 56.5164 322.112 56.8681 323.934 56.8682C325.755 56.8682 327.322 56.5165 328.632 55.8135C329.942 55.0997 330.944 54.1245 331.637 52.8887C332.34 51.6423 332.691 50.22 332.691 48.6221V27.2725H336.654V48.9414C336.654 51.1786 336.127 53.1768 335.072 54.9346C334.028 56.6816 332.552 58.0612 330.646 59.0732C328.739 60.0746 326.501 60.5752 323.934 60.5752C321.366 60.5751 319.129 60.0745 317.223 59.0732C315.316 58.0612 313.835 56.6815 312.78 54.9346C311.736 53.1768 311.214 51.1786 311.214 48.9414V27.2725H315.177V48.6221ZM137.131 26.8252C138.782 26.8252 140.332 27.0647 141.78 27.5439C143.24 28.0233 144.556 28.7266 145.728 29.6533C146.899 30.5695 147.88 31.6887 148.668 33.0098C149.456 34.3201 150 35.8168 150.298 37.5H146.335C146.101 36.3602 145.69 35.359 145.104 34.4961C144.529 33.6332 143.826 32.9082 142.995 32.3223C142.175 31.7258 141.264 31.2788 140.263 30.9805C139.261 30.6822 138.217 30.5323 137.131 30.5322C135.149 30.5322 133.354 31.0337 131.745 32.0352C130.147 33.0365 128.874 34.5115 127.926 36.4609C126.988 38.4105 126.52 40.8029 126.52 43.6367C126.52 46.4703 126.988 48.8621 127.926 50.8115C128.874 52.7611 130.147 54.2369 131.745 55.2383C133.354 56.2396 135.149 56.7402 137.131 56.7402C138.217 56.7402 139.261 56.5912 140.263 56.293C141.264 55.9947 142.175 55.5518 142.995 54.9658C143.826 54.3693 144.529 53.6401 145.104 52.7773C145.69 51.9038 146.101 50.9017 146.335 49.7725H150.298C150 51.445 149.456 52.9417 148.668 54.2627C147.88 55.5837 146.899 56.7079 145.728 57.6348C144.556 58.5509 143.24 59.2491 141.78 59.7285C140.332 60.2078 138.782 60.4472 137.131 60.4473C134.34 60.4473 131.857 59.766 129.684 58.4023C127.51 57.0387 125.8 55.0992 124.554 52.585C123.307 50.0709 122.685 47.0881 122.685 43.6367C122.685 40.1851 123.307 37.2017 124.554 34.6875C125.8 32.1734 127.51 30.2347 129.684 28.8711C131.857 27.5075 134.34 26.8252 137.131 26.8252ZM169.87 26.8252C172.661 26.8253 175.143 27.5075 177.316 28.8711C179.49 30.2347 181.2 32.1733 182.446 34.6875C183.693 37.2017 184.315 40.1851 184.315 43.6367C184.315 47.0881 183.693 50.0709 182.446 52.585C181.2 55.0992 179.49 57.0387 177.316 58.4023C175.143 59.7658 172.661 60.4472 169.87 60.4473C167.079 60.4473 164.596 59.766 162.423 58.4023C160.25 57.0387 158.539 55.0992 157.293 52.585C156.047 50.0709 155.424 47.0881 155.424 43.6367C155.424 40.1851 156.047 37.2017 157.293 34.6875C158.539 32.1734 160.25 30.2347 162.423 28.8711C164.596 27.5075 167.079 26.8252 169.87 26.8252ZM212.713 53.0322H213.032V27.2725H216.932V60H213.096L195.262 34.3037H194.942V60H190.979V27.2725H194.814L212.713 53.0322ZM276.313 30.7881H266.022V60H262.059V30.7881H251.768V27.2725H276.313V30.7881ZM293.488 27.2725C296.045 27.2725 298.144 27.7095 299.784 28.583C301.425 29.4459 302.639 30.6337 303.428 32.1465C304.216 33.6593 304.61 35.3803 304.61 37.3086C304.61 39.2366 304.216 40.9462 303.428 42.4375C302.639 43.929 301.43 45.1009 299.8 45.9531C299.393 46.163 298.959 46.3464 298.496 46.5039L305.889 60H301.286L294.385 47.1992C294.113 47.2097 293.835 47.2158 293.552 47.2158H286.393V60H282.43V27.2725H293.488ZM348.531 60H344.568V27.2725H348.531V60ZM367.536 27.2725C370.093 27.2725 372.191 27.7095 373.832 28.583C375.473 29.4459 376.687 30.6337 377.476 32.1465C378.264 33.6593 378.658 35.3803 378.658 37.3086C378.658 39.2366 378.264 40.9462 377.476 42.4375C376.687 43.929 375.478 45.1009 373.848 45.9531C373.441 46.163 373.007 46.3464 372.544 46.5039L379.937 60H375.334L368.433 47.1992C368.161 47.2097 367.883 47.2158 367.6 47.2158H360.44V60H356.478V27.2725H367.536ZM405.013 30.7881H389.225V41.8467H403.99V45.3623H389.225V56.4844H405.269V60H385.262V27.2725H405.013V30.7881ZM169.87 30.5322C167.889 30.5322 166.093 31.0337 164.484 32.0352C162.887 33.0365 161.613 34.5115 160.665 36.4609C159.728 38.4105 159.259 40.8029 159.259 43.6367C159.259 46.4703 159.728 48.8621 160.665 50.8115C161.613 52.7611 162.886 54.2369 164.484 55.2383C166.093 56.2396 167.889 56.7402 169.87 56.7402C171.851 56.7402 173.641 56.2396 175.239 55.2383C176.848 54.2369 178.121 52.7611 179.059 50.8115C180.007 48.8621 180.48 46.4703 180.48 43.6367C180.48 40.8029 180.007 38.4105 179.059 36.4609C178.121 34.5116 176.848 33.0366 175.239 32.0352C173.641 31.0338 171.852 30.5323 169.87 30.5322ZM286.393 43.6367H293.424C295.171 43.6367 296.577 43.3805 297.643 42.8691C298.718 42.3578 299.496 41.6336 299.976 40.6963C300.466 39.7482 300.711 38.6188 300.711 37.3086C300.711 35.9982 300.466 34.8522 299.976 33.8721C299.486 32.8922 298.703 32.1361 297.627 31.6035C296.551 31.0602 295.129 30.7881 293.36 30.7881H286.393V43.6367ZM360.44 43.6367H367.472C369.219 43.6367 370.625 43.3805 371.69 42.8691C372.766 42.3578 373.544 41.6336 374.023 40.6963C374.513 39.7482 374.759 38.6188 374.759 37.3086C374.759 35.9982 374.513 34.8522 374.023 33.8721C373.533 32.8922 372.751 32.1361 371.675 31.6035C370.599 31.0602 369.177 30.7881 367.408 30.7881H360.44V43.6367Z" fill="#014F43"/>
<path d="M106 28.9463V102H0V28.9463L53 0L106 28.9463ZM53 32C38.6406 32 27 43.6406 27 58C27 72.3594 38.6406 84 53 84C67.3594 84 79 72.3594 79 58C79 43.6406 67.3594 32 53 32Z" fill="#F34B20"/>
</svg>
